<svg xmlns="http://www.w3.org/2000/svg" viewBox="80 230 450 280">
    <style>
        .logo { fill: #242424; }
        @media (prefers-color-scheme: dark) {
            .logo { fill: #84a59d; }
        }
    </style>
    <g transform="translate(-16.849067,148.89872)" class="logo">
        <path d="m 231.50612,132.50285 c 20.99,7.67 54.22,29.75 69.69,46.4 0.44,0.48 0.8,1.08 0.98,1.71 l -21.05,17.05 c -10.95,-9.26 -21.68,-18.8 -34,-26.28 -25.25,-15.32 -56.68,-25.39 -86.1,-16.78 -47.08,13.78 -51.24,61.65 -7.71,84 38.58,19.81001 85.14,4.68 119.54,-16.84 38.78,-24.26999 64.23,-61.38999 106.5,-82.19999 42.22,-20.78001 96.78,-21.73001 133.18,11.09999 38.57,34.78 21.72,91.63 -21.91,111.97 -3.99,1.86001 -5.3,2.61001 -9.47,1.28001 -8.57,-2.72001 -18.83,-7.75 -27.27,-11.15001 -1.94,-0.78 -11.52,-3.88 -11.98,-4.97 -0.11,-0.27 -0.26,-1.49 0.35,-1.38999 2.48,-0.83001 5.36,-0.22 7.71,-0.7 23.33,-4.79 51.8,-21 53.51,-47.61 1.67,-26.06 -29.06,-43.39 -51.7,-45.45 -41.25,-3.75 -74.71,17.41 -104.26,43.19 -6.23,5.44 -12.22,11.10999 -18.06,16.95 0,0.49 2.66,1.65 3.22,1.84999 6.79,2.43001 13.22,4.59001 19.81,7.31 22.52,9.29001 43.44,22.06 65.68,32.07001 37.41,16.81999 86,25.81999 107.45,64.3 17.17,30.8 8.49,65.8 -20.83,84.99 -35.04,22.93 -81.46,20.29 -118.4,3.33 -22.84,-10.49 -41.64,-25.74 -60.2,-42.33 -0.33,-0.5 -0.23,-1.18 -0.04,-1.72001 0.73,-2.07999 15.31,-12.18999 18.12,-13.97999 0.9,-0.57 0.58,-1.75 2.93,-1.65001 2.07,0.09 3.17,2.72001 4.46,3.74 29.14,23.07001 58.75,44.88 98.44,42.57001 54.6,-3.17001 75.62,-56.42001 23.56,-84.59 -39.84,-21.56 -85.66,-6.4 -121.36,15.64999 -42.45,26.22001 -72.8,67.03001 -120.63,85.58001 -39.46,15.29999 -94.62,15.56999 -124.28,-18.80001 -26.830004,-31.08999 -17.160004,-75.9 14.7,-99.19999 2.75,-2.01 12.51,-8.28 15.35,-8.99 2.84,-0.71001 5.9,2.37 8.22,3.42999 5.87,2.67 13.03,5.96001 19.02,8.1 1.2,0.43001 9.92,2.54 9.91,3.08001 -2.02,2.08 -5.47,1.93999 -7.9,2.81999 -16.38,5.97001 -36.9,19.35 -42.23,36.86 -9.53,31.32001 19.74,53.5 48.17,55.47001 46.96,3.25 85.47,-27.08001 117.88,-56.66001 1.06,-0.96999 6.09,-4.32 6.18,-4.69999 0.15,-0.7 0.05,-1.72001 -0.58,-2.19 l -29.96,-10.72 c -20.06,-9.05001 -40.07,-18.45001 -60.48,-26.53 -35.78,-14.18001 -81.26,-24.89001 -103.37,-59.34001 -15.240004,-23.75 -13.730004,-57.09999 5.34,-78.21 30.73,-34.01999 82.92,-36.79999 123.87,-21.82999 z m 142.94,123.71 c -18.04,-7.32 -37.12,-21.03 -56.62,-23.9 -19.69,-2.89 -56.13,20.87 -74.26,30.19 -5.98,3.08 -12.19,5.85 -18.27,8.74 -2.95,1.69001 6.32,4.81001 7.09,5.23 14.16,7.69 28.67,16.02 43.24,22.86 28.53,13.39 43.25,15.78 72.58,2.25 17.03,-7.86 33.68,-17.95 50.35,-26.48 1.96,-1 3.88,-0.96 5.47,-3.01 l -13.74,-7.72 z" />
        <path d="m 331.16004,260.22566 c 9.25,12.36 2.15,32.28001 -14.09,33.55001 -14.33,1.12 -25.28,-7.4 -24.56,-22.29 1,-20.57 26.39,-27.64 38.65,-11.26001 z" />
    </g>
</svg>
