<?xml version="1.0" encoding="UTF-8" standalone="no"?>
<svg
   id="Ebene_1"
   version="1.1"
   viewBox="0 0 595.28 841.89"
   sodipodi:docname="SabioOriginalLogo.svg"
   inkscape:version="1.4.3 (0d15f750, 2025-12-25)"
   xmlns:inkscape="http://www.inkscape.org/namespaces/inkscape"
   xmlns:sodipodi="http://sodipodi.sourceforge.net/DTD/sodipodi-0.dtd"
   xmlns:xlink="http://www.w3.org/1999/xlink"
   xmlns="http://www.w3.org/2000/svg"
   xmlns:svg="http://www.w3.org/2000/svg">
  <sodipodi:namedview
     id="namedview4"
     pagecolor="#505050"
     bordercolor="#ffffff"
     borderopacity="1"
     inkscape:showpageshadow="0"
     inkscape:pageopacity="0"
     inkscape:pagecheckerboard="1"
     inkscape:deskcolor="#505050"
     inkscape:zoom="1.07"
     inkscape:cx="298.13084"
     inkscape:cy="421.02804"
     inkscape:window-width="2048"
     inkscape:window-height="1152"
     inkscape:window-x="0"
     inkscape:window-y="0"
     inkscape:window-maximized="0"
     inkscape:current-layer="Ebene_1"
     showguides="true" />
  <!-- Generator: Adobe Illustrator 29.1.0, SVG Export Plug-In . SVG Version: 2.1.0 Build 142)  -->
  <defs
     id="defs4">
    <linearGradient
       id="linearGradient85"
       inkscape:collect="always">
      <stop
         style="stop-color:#2f353b;stop-opacity:1;"
         offset="0.07142857"
         id="stop84" />
      <stop
         style="stop-color:#1a1b1d;stop-opacity:1;"
         offset="0.50336921"
         id="stop86" />
      <stop
         style="stop-color:#080808;stop-opacity:1;"
         offset="0.967655"
         id="stop85" />
    </linearGradient>
    <linearGradient
       id="swatch76"
       inkscape:swatch="solid">
      <stop
         style="stop-color:#84a59d;stop-opacity:1;"
         offset="0"
         id="stop76" />
    </linearGradient>
    <clipPath
       clipPathUnits="userSpaceOnUse"
       id="clipPath33">
      <rect
         style="fill:#000000;stroke:none;stroke-width:0.999995;stroke-linecap:butt;stroke-linejoin:bevel;paint-order:stroke markers fill;stop-color:#000000"
         id="rect33"
         width="46.19186"
         height="80.006783"
         x="74.999985"
         y="399.99661" />
    </clipPath>
    <linearGradient
       id="swatch40"
       inkscape:swatch="solid">
      <stop
         style="stop-color:#84a59d;stop-opacity:1;"
         offset="0"
         id="stop41" />
    </linearGradient>
    <inkscape:path-effect
       effect="fillet_chamfer"
       id="path-effect26"
       is_visible="true"
       lpeversion="1"
       nodesatellites_param="F,0,0,1,0,0,0,1 @ F,0,0,1,0,0,0,1 @ F,0,0,1,0,0,0,1 @ F,0,0,1,0,0,0,1 @ F,0,0,1,0,0,0,1 @ F,0,0,1,0,0,0,1"
       radius="0"
       unit="px"
       method="auto"
       mode="F"
       chamfer_steps="1"
       flexible="false"
       use_knot_distance="true"
       apply_no_radius="true"
       apply_with_radius="true"
       only_selected="false"
       hide_knots="false" />
    <inkscape:path-effect
       effect="fillet_chamfer"
       id="path-effect22"
       is_visible="true"
       lpeversion="1"
       nodesatellites_param="F,0,0,1,0,0,0,1 @ F,0,0,1,0,0,0,1 @ F,0,0,1,0,0,0,1 @ F,0,0,1,0,0,0,1 @ F,0,0,1,0,0,0,1 @ F,0,0,1,0,0,0,1"
       radius="0"
       unit="px"
       method="auto"
       mode="F"
       chamfer_steps="1"
       flexible="false"
       use_knot_distance="true"
       apply_no_radius="true"
       apply_with_radius="true"
       only_selected="false"
       hide_knots="false" />
    <inkscape:path-effect
       effect="fillet_chamfer"
       id="path-effect18"
       is_visible="true"
       lpeversion="1"
       nodesatellites_param="F,0,0,1,0,0,0,1 @ F,0,0,1,0,0,0,1 @ F,0,0,1,0,0,0,1 @ F,0,0,1,0,0,0,1 @ F,0,0,1,0,0,0,1 @ F,0,0,1,0,0,0,1"
       radius="0"
       unit="px"
       method="auto"
       mode="F"
       chamfer_steps="1"
       flexible="false"
       use_knot_distance="true"
       apply_no_radius="true"
       apply_with_radius="true"
       only_selected="false"
       hide_knots="false" />
    <inkscape:path-effect
       effect="fillet_chamfer"
       id="path-effect13"
       is_visible="true"
       lpeversion="1"
       nodesatellites_param="F,0,0,1,0,0,0,1 @ F,0,0,1,0,0,0,1 @ F,0,0,1,0,0,0,1 @ F,0,0,1,0,0,0,1 @ F,0,0,1,0,0,0,1 @ F,0,0,1,0,0,0,1"
       radius="0"
       unit="px"
       method="auto"
       mode="F"
       chamfer_steps="1"
       flexible="false"
       use_knot_distance="true"
       apply_no_radius="true"
       apply_with_radius="true"
       only_selected="false"
       hide_knots="false" />
    <inkscape:path-effect
       effect="fillet_chamfer"
       id="path-effect10"
       is_visible="true"
       lpeversion="1"
       nodesatellites_param="F,0,0,1,0,0,0,1 @ F,0,0,1,0,0,0,1 @ F,0,0,1,0,0,0,1 @ F,0,0,1,0,0,0,1 @ F,0,0,1,0,0,0,1 @ F,0,0,1,0,0,0,1"
       radius="0"
       unit="px"
       method="auto"
       mode="F"
       chamfer_steps="1"
       flexible="false"
       use_knot_distance="true"
       apply_no_radius="true"
       apply_with_radius="true"
       only_selected="false"
       hide_knots="false" />
    <inkscape:path-effect
       effect="fillet_chamfer"
       id="path-effect9"
       is_visible="true"
       lpeversion="1"
       nodesatellites_param="F,0,0,1,0,0,0,1 @ F,0,0,1,0,0,0,1 @ F,0,0,1,0,0,0,1 @ F,0,0,1,0,0,0,1"
       radius="0"
       unit="px"
       method="auto"
       mode="F"
       chamfer_steps="1"
       flexible="false"
       use_knot_distance="true"
       apply_no_radius="true"
       apply_with_radius="true"
       only_selected="false"
       hide_knots="false" />
    <style
       id="style1">
      .st0 {
        fill: #fff;
      }
    </style>
    <symbol
       id="Sabio"
       viewBox="0 0 495 347.91">
      <g
         id="g4">
        <path
           class="st0"
           d="M495,0v347.91H0V0h495ZM167.65,35.21c-40.95-14.97-93.13-12.19-123.87,21.83-19.07,21.11-20.58,54.47-5.34,78.21,22.11,34.45,67.59,45.16,103.37,59.34,20.41,8.09,40.42,17.48,60.48,26.53l29.96,10.72c.63.47.74,1.49.58,2.19-.08.38-5.11,3.73-6.18,4.7-32.41,29.57-70.92,59.91-117.88,56.66-28.43-1.97-57.7-24.15-48.17-55.47,5.33-17.51,25.85-30.89,42.23-36.86,2.43-.89,5.88-.75,7.9-2.82.02-.54-8.71-2.65-9.91-3.08-6-2.14-13.15-5.42-19.02-8.1-2.33-1.06-5.53-4.11-8.22-3.43-2.84.71-12.6,6.98-15.35,8.99-31.86,23.3-41.53,68.12-14.7,99.2,29.66,34.37,84.82,34.1,124.28,18.8,47.84-18.55,78.18-59.35,120.63-85.58,35.7-22.05,81.52-37.21,121.36-15.65,52.06,28.18,31.04,81.42-23.56,84.59-39.69,2.31-69.3-19.5-98.44-42.57-1.29-1.02-2.4-3.65-4.46-3.74-2.35-.1-2.03,1.08-2.93,1.65-2.82,1.79-17.4,11.91-18.12,13.98-.19.55-.29,1.22.04,1.72,18.55,16.58,37.35,31.84,60.2,42.33,36.93,16.96,83.36,19.6,118.4-3.33,29.32-19.19,38-54.2,20.83-84.99-21.46-38.48-70.05-47.47-107.45-64.3-22.24-10-43.16-22.78-65.68-32.07-6.59-2.72-13.02-4.88-19.81-7.31-.56-.2-3.22-1.36-3.22-1.85,5.85-5.84,11.83-11.52,18.06-16.95,29.55-25.78,63-46.95,104.26-43.19,22.64,2.06,53.37,19.39,51.7,45.45-1.71,26.61-30.18,42.82-53.51,47.61-2.35.48-5.23-.14-7.71.7-.61-.1-.46,1.12-.35,1.39.46,1.09,10.04,4.19,11.98,4.97,8.43,3.39,18.7,8.43,27.27,11.15,4.17,1.32,5.48.58,9.47-1.28,43.63-20.34,60.48-77.19,21.91-111.97-36.4-32.83-90.95-31.88-133.18-11.1-42.27,20.8-67.71,57.93-106.5,82.2-34.4,21.52-80.96,36.65-119.54,16.84-43.53-22.35-39.37-70.22,7.71-84,29.42-8.61,60.84,1.46,86.1,16.78,12.32,7.48,23.05,17.02,34,26.28l21.05-17.05c-.18-.63-.54-1.23-.98-1.71-15.47-16.64-48.7-38.73-69.69-46.4Z"
           id="path1" />
        <path
           d="M167.65,35.21c20.99,7.67,54.22,29.75,69.69,46.4.44.48.8,1.08.98,1.71l-21.05,17.05c-10.95-9.26-21.68-18.8-34-26.28-25.25-15.32-56.68-25.39-86.1-16.78-47.08,13.78-51.24,61.65-7.71,84,38.58,19.81,85.14,4.68,119.54-16.84,38.78-24.27,64.23-61.39,106.5-82.2,42.22-20.78,96.78-21.73,133.18,11.1,38.57,34.78,21.72,91.63-21.91,111.97-3.99,1.86-5.3,2.61-9.47,1.28-8.57-2.72-18.83-7.75-27.27-11.15-1.94-.78-11.52-3.88-11.98-4.97-.11-.27-.26-1.49.35-1.39,2.48-.83,5.36-.22,7.71-.7,23.33-4.79,51.8-21,53.51-47.61,1.67-26.06-29.06-43.39-51.7-45.45-41.25-3.75-74.71,17.41-104.26,43.19-6.23,5.44-12.22,11.11-18.06,16.95,0,.49,2.66,1.65,3.22,1.85,6.79,2.43,13.22,4.59,19.81,7.31,22.52,9.29,43.44,22.06,65.68,32.07,37.41,16.82,86,25.82,107.45,64.3,17.17,30.8,8.49,65.8-20.83,84.99-35.04,22.93-81.46,20.29-118.4,3.33-22.84-10.49-41.64-25.74-60.2-42.33-.33-.5-.23-1.18-.04-1.72.73-2.08,15.31-12.19,18.12-13.98.9-.57.58-1.75,2.93-1.65,2.07.09,3.17,2.72,4.46,3.74,29.14,23.07,58.75,44.88,98.44,42.57,54.6-3.17,75.62-56.42,23.56-84.59-39.84-21.56-85.66-6.4-121.36,15.65-42.45,26.22-72.8,67.03-120.63,85.58-39.46,15.3-94.62,15.57-124.28-18.8-26.83-31.09-17.16-75.9,14.7-99.2,2.75-2.01,12.51-8.28,15.35-8.99s5.9,2.37,8.22,3.43c5.87,2.67,13.03,5.96,19.02,8.1,1.2.43,9.92,2.54,9.91,3.08-2.02,2.08-5.47,1.94-7.9,2.82-16.38,5.97-36.9,19.35-42.23,36.86-9.53,31.32,19.74,53.5,48.17,55.47,46.96,3.25,85.47-27.08,117.88-56.66,1.06-.97,6.09-4.32,6.18-4.7.15-.7.05-1.72-.58-2.19l-29.96-10.72c-20.06-9.05-40.07-18.45-60.48-26.53-35.78-14.18-81.26-24.89-103.37-59.34-15.24-23.75-13.73-57.1,5.34-78.21,30.73-34.02,82.92-36.8,123.87-21.83ZM310.59,158.92c-18.04-7.32-37.12-21.03-56.62-23.9-19.69-2.89-56.13,20.87-74.26,30.19-5.98,3.08-12.19,5.85-18.27,8.74-2.95,1.69,6.32,4.81,7.09,5.23,14.16,7.69,28.67,16.02,43.24,22.86,28.53,13.39,43.25,15.78,72.58,2.25,17.03-7.86,33.68-17.95,50.35-26.48,1.96-1,3.88-.96,5.47-3.01l-13.74-7.72-15.84-8.16Z"
           id="path2" />
        <path
           class="st0"
           d="M310.59,158.92l15.84,8.16,13.74,7.72c-1.59,2.05-3.51,2.01-5.47,3.01-16.67,8.54-33.32,18.63-50.35,26.48-29.33,13.53-44.05,11.15-72.58-2.25-14.58-6.84-29.09-15.17-43.24-22.86-.77-.42-10.04-3.54-7.09-5.23,6.08-2.89,12.29-5.66,18.27-8.74,18.13-9.33,54.57-33.09,74.26-30.19,19.5,2.87,38.58,16.57,56.62,23.9ZM267.52,161.3c-12.26-16.39-37.66-9.32-38.65,11.26-.72,14.89,10.23,23.42,24.56,22.29,16.24-1.27,23.35-21.19,14.09-33.55Z"
           id="path3" />
        <path
           d="M267.52,161.3c9.25,12.36,2.15,32.28-14.09,33.55-14.33,1.12-25.28-7.4-24.56-22.29,1-20.57,26.39-27.64,38.65-11.26Z"
           id="path4" />
      </g>
    </symbol>
    <linearGradient
       inkscape:collect="always"
       xlink:href="#linearGradient85"
       id="linearGradient84"
       x1="313.08224"
       y1="50.600395"
       x2="313.08228"
       y2="493.17676"
       gradientUnits="userSpaceOnUse"
       spreadMethod="reflect" />
  </defs>
  <g
     id="g25"
     inkscape:label="Colorway - Berserk - Blood &amp; Dragonslayer"
     style="display:none">
    <path
       style="display:inline;fill:#4a0404;fill-opacity:1"
       id="path22"
       width="574.21198"
       height="558.66956"
       x="10.533936"
       y="141.61023"
       sodipodi:type="rect"
       inkscape:path-effect="#path-effect26"
       d="m 297.63983,141.61023 h 1.8e-4 c 159.05667,0 287.1059,124.58331 287.1059,279.33478 0,154.75146 -128.04923,279.33478 -287.1059,279.33478 h -1.8e-4 c -159.05666,0 -287.105894,-124.58332 -287.105894,-279.33478 0,-154.75147 128.049234,-279.33478 287.105894,-279.33478 z"
       rx="287.1059"
       ry="279.33478" />
    <g
       id="g24"
       inkscape:transform-center-x="1.4066774"
       inkscape:transform-center-y="-0.1577287"
       transform="translate(-16.849067,148.89872)"
       style="fill:url(#linearGradient84)">
      <path
         d="m 231.50612,132.50285 c 20.99,7.67 54.22,29.75 69.69,46.4 0.44,0.48 0.8,1.08 0.98,1.71 l -21.05,17.05 c -10.95,-9.26 -21.68,-18.8 -34,-26.28 -25.25,-15.32 -56.68,-25.39 -86.1,-16.78 -47.08,13.78 -51.24,61.65 -7.71,84 38.58,19.81001 85.14,4.68 119.54,-16.84 38.78,-24.26999 64.23,-61.38999 106.5,-82.19999 42.22,-20.78001 96.78,-21.73001 133.18,11.09999 38.57,34.78 21.72,91.63 -21.91,111.97 -3.99,1.86001 -5.3,2.61001 -9.47,1.28001 -8.57,-2.72001 -18.83,-7.75 -27.27,-11.15001 -1.94,-0.78 -11.52,-3.88 -11.98,-4.97 -0.11,-0.27 -0.26,-1.49 0.35,-1.38999 2.48,-0.83001 5.36,-0.22 7.71,-0.7 23.33,-4.79 51.8,-21 53.51,-47.61 1.67,-26.06 -29.06,-43.39 -51.7,-45.45 -41.25,-3.75 -74.71,17.41 -104.26,43.19 -6.23,5.44 -12.22,11.10999 -18.06,16.95 0,0.49 2.66,1.65 3.22,1.84999 6.79,2.43001 13.22,4.59001 19.81,7.31 22.52,9.29001 43.44,22.06 65.68,32.07001 37.41,16.81999 86,25.81999 107.45,64.3 17.17,30.8 8.49,65.8 -20.83,84.99 -35.04,22.93 -81.46,20.29 -118.4,3.33 -22.84,-10.49 -41.64,-25.74 -60.2,-42.33 -0.33,-0.5 -0.23,-1.18 -0.04,-1.72001 0.73,-2.07999 15.31,-12.18999 18.12,-13.97999 0.9,-0.57 0.58,-1.75 2.93,-1.65001 2.07,0.09 3.17,2.72001 4.46,3.74 29.14,23.07001 58.75,44.88 98.44,42.57001 54.6,-3.17001 75.62,-56.42001 23.56,-84.59 -39.84,-21.56 -85.66,-6.4 -121.36,15.64999 -42.45,26.22001 -72.8,67.03001 -120.63,85.58001 -39.46,15.29999 -94.62,15.56999 -124.28,-18.80001 -26.830004,-31.08999 -17.160004,-75.9 14.7,-99.19999 2.75,-2.01 12.51,-8.28 15.35,-8.99 2.84,-0.71001 5.9,2.37 8.22,3.42999 5.87,2.67 13.03,5.96001 19.02,8.1 1.2,0.43001 9.92,2.54 9.91,3.08001 -2.02,2.08 -5.47,1.93999 -7.9,2.81999 -16.38,5.97001 -36.9,19.35 -42.23,36.86 -9.53,31.32001 19.74,53.5 48.17,55.47001 46.96,3.25 85.47,-27.08001 117.88,-56.66001 1.06,-0.96999 6.09,-4.32 6.18,-4.69999 0.15,-0.7 0.05,-1.72001 -0.58,-2.19 l -29.96,-10.72 c -20.06,-9.05001 -40.07,-18.45001 -60.48,-26.53 -35.78,-14.18001 -81.26,-24.89001 -103.37,-59.34001 -15.240004,-23.75 -13.730004,-57.09999 5.34,-78.21 30.73,-34.01999 82.92,-36.79999 123.87,-21.82999 z m 142.94,123.71 c -18.04,-7.32 -37.12,-21.03 -56.62,-23.9 -19.69,-2.89 -56.13,20.87 -74.26,30.19 -5.98,3.08 -12.19,5.85 -18.27,8.74 -2.95,1.69001 6.32,4.81001 7.09,5.23 14.16,7.69 28.67,16.02 43.24,22.86 28.53,13.39 43.25,15.78 72.58,2.25 17.03,-7.86 33.68,-17.95 50.35,-26.48 1.96,-1 3.88,-0.96 5.47,-3.01 l -13.74,-7.72 z"
         id="path23"
         style="mix-blend-mode:normal;fill:url(#linearGradient84)"
         inkscape:transform-center-x="1.0047275"
         inkscape:transform-center-y="1.0018972"
         inkscape:label="path6" />
      <path
         d="m 331.16004,260.22566 c 9.25,12.36 2.15,32.28001 -14.09,33.55001 -14.33,1.12 -25.28,-7.4 -24.56,-22.29 1,-20.57 26.39,-27.64 38.65,-11.26001 z"
         id="path24"
         style="mix-blend-mode:normal;fill:url(#linearGradient84)" />
    </g>
  </g>
  <g
     id="g13"
     inkscape:label="Colorway - Electronics - Circuit &amp; Wire"
     style="display:none">
    <path
       style="display:inline;fill:#2e5a1c;fill-opacity:1"
       id="rect9"
       width="574.21198"
       height="558.66956"
       x="10.533936"
       y="141.61023"
       sodipodi:type="rect"
       inkscape:path-effect="#path-effect10"
       d="m 297.63983,141.61023 h 1.8e-4 c 159.05667,0 287.1059,124.58331 287.1059,279.33478 0,154.75146 -128.04923,279.33478 -287.1059,279.33478 h -1.8e-4 c -159.05666,0 -287.105894,-124.58332 -287.105894,-279.33478 0,-154.75147 128.049234,-279.33478 287.105894,-279.33478 z"
       rx="287.1059"
       ry="279.33478" />
    <g
       id="g9"
       inkscape:transform-center-x="1.4066774"
       inkscape:transform-center-y="-0.1577287"
       transform="translate(-16.849067,148.89872)"
       style="fill:#b87333;fill-opacity:1">
      <path
         d="m 231.50612,132.50285 c 20.99,7.67 54.22,29.75 69.69,46.4 0.44,0.48 0.8,1.08 0.98,1.71 l -21.05,17.05 c -10.95,-9.26 -21.68,-18.8 -34,-26.28 -25.25,-15.32 -56.68,-25.39 -86.1,-16.78 -47.08,13.78 -51.24,61.65 -7.71,84 38.58,19.81001 85.14,4.68 119.54,-16.84 38.78,-24.26999 64.23,-61.38999 106.5,-82.19999 42.22,-20.78001 96.78,-21.73001 133.18,11.09999 38.57,34.78 21.72,91.63 -21.91,111.97 -3.99,1.86001 -5.3,2.61001 -9.47,1.28001 -8.57,-2.72001 -18.83,-7.75 -27.27,-11.15001 -1.94,-0.78 -11.52,-3.88 -11.98,-4.97 -0.11,-0.27 -0.26,-1.49 0.35,-1.38999 2.48,-0.83001 5.36,-0.22 7.71,-0.7 23.33,-4.79 51.8,-21 53.51,-47.61 1.67,-26.06 -29.06,-43.39 -51.7,-45.45 -41.25,-3.75 -74.71,17.41 -104.26,43.19 -6.23,5.44 -12.22,11.10999 -18.06,16.95 0,0.49 2.66,1.65 3.22,1.84999 6.79,2.43001 13.22,4.59001 19.81,7.31 22.52,9.29001 43.44,22.06 65.68,32.07001 37.41,16.81999 86,25.81999 107.45,64.3 17.17,30.8 8.49,65.8 -20.83,84.99 -35.04,22.93 -81.46,20.29 -118.4,3.33 -22.84,-10.49 -41.64,-25.74 -60.2,-42.33 -0.33,-0.5 -0.23,-1.18 -0.04,-1.72001 0.73,-2.07999 15.31,-12.18999 18.12,-13.97999 0.9,-0.57 0.58,-1.75 2.93,-1.65001 2.07,0.09 3.17,2.72001 4.46,3.74 29.14,23.07001 58.75,44.88 98.44,42.57001 54.6,-3.17001 75.62,-56.42001 23.56,-84.59 -39.84,-21.56 -85.66,-6.4 -121.36,15.64999 -42.45,26.22001 -72.8,67.03001 -120.63,85.58001 -39.46,15.29999 -94.62,15.56999 -124.28,-18.80001 -26.830004,-31.08999 -17.160004,-75.9 14.7,-99.19999 2.75,-2.01 12.51,-8.28 15.35,-8.99 2.84,-0.71001 5.9,2.37 8.22,3.42999 5.87,2.67 13.03,5.96001 19.02,8.1 1.2,0.43001 9.92,2.54 9.91,3.08001 -2.02,2.08 -5.47,1.93999 -7.9,2.81999 -16.38,5.97001 -36.9,19.35 -42.23,36.86 -9.53,31.32001 19.74,53.5 48.17,55.47001 46.96,3.25 85.47,-27.08001 117.88,-56.66001 1.06,-0.96999 6.09,-4.32 6.18,-4.69999 0.15,-0.7 0.05,-1.72001 -0.58,-2.19 l -29.96,-10.72 c -20.06,-9.05001 -40.07,-18.45001 -60.48,-26.53 -35.78,-14.18001 -81.26,-24.89001 -103.37,-59.34001 -15.240004,-23.75 -13.730004,-57.09999 5.34,-78.21 30.73,-34.01999 82.92,-36.79999 123.87,-21.82999 z m 142.94,123.71 c -18.04,-7.32 -37.12,-21.03 -56.62,-23.9 -19.69,-2.89 -56.13,20.87 -74.26,30.19 -5.98,3.08 -12.19,5.85 -18.27,8.74 -2.95,1.69001 6.32,4.81001 7.09,5.23 14.16,7.69 28.67,16.02 43.24,22.86 28.53,13.39 43.25,15.78 72.58,2.25 17.03,-7.86 33.68,-17.95 50.35,-26.48 1.96,-1 3.88,-0.96 5.47,-3.01 l -13.74,-7.72 z"
         id="path6"
         style="mix-blend-mode:normal;fill:#b87333;fill-opacity:1"
         inkscape:transform-center-x="1.0047275"
         inkscape:transform-center-y="1.0018972"
         inkscape:label="path6" />
      <path
         d="m 331.16004,260.22566 c 9.25,12.36 2.15,32.28001 -14.09,33.55001 -14.33,1.12 -25.28,-7.4 -24.56,-22.29 1,-20.57 26.39,-27.64 38.65,-11.26001 z"
         id="path8"
         style="mix-blend-mode:normal;fill:#b87333;fill-opacity:1" />
    </g>
  </g>
  <g
     id="g14"
     inkscape:label="Colorway - Polymath's Spectrum - Steel &amp; Resin"
     style="display:none">
    <path
       style="display:inline;fill:#4a4a4a;fill-opacity:1"
       id="path10"
       width="574.21198"
       height="558.66956"
       x="10.533936"
       y="141.61023"
       sodipodi:type="rect"
       inkscape:path-effect="#path-effect13"
       d="m 297.63983,141.61023 h 1.8e-4 c 159.05667,0 287.1059,124.58331 287.1059,279.33478 0,154.75146 -128.04923,279.33478 -287.1059,279.33478 h -1.8e-4 c -159.05666,0 -287.105894,-124.58332 -287.105894,-279.33478 0,-154.75147 128.049234,-279.33478 287.105894,-279.33478 z"
       rx="287.1059"
       ry="279.33478" />
    <g
       id="g12"
       inkscape:transform-center-x="1.4066774"
       inkscape:transform-center-y="-0.1577287"
       transform="translate(-16.849067,148.89872)"
       style="fill:#ffb347;fill-opacity:1">
      <path
         d="m 231.50612,132.50285 c 20.99,7.67 54.22,29.75 69.69,46.4 0.44,0.48 0.8,1.08 0.98,1.71 l -21.05,17.05 c -10.95,-9.26 -21.68,-18.8 -34,-26.28 -25.25,-15.32 -56.68,-25.39 -86.1,-16.78 -47.08,13.78 -51.24,61.65 -7.71,84 38.58,19.81001 85.14,4.68 119.54,-16.84 38.78,-24.26999 64.23,-61.38999 106.5,-82.19999 42.22,-20.78001 96.78,-21.73001 133.18,11.09999 38.57,34.78 21.72,91.63 -21.91,111.97 -3.99,1.86001 -5.3,2.61001 -9.47,1.28001 -8.57,-2.72001 -18.83,-7.75 -27.27,-11.15001 -1.94,-0.78 -11.52,-3.88 -11.98,-4.97 -0.11,-0.27 -0.26,-1.49 0.35,-1.38999 2.48,-0.83001 5.36,-0.22 7.71,-0.7 23.33,-4.79 51.8,-21 53.51,-47.61 1.67,-26.06 -29.06,-43.39 -51.7,-45.45 -41.25,-3.75 -74.71,17.41 -104.26,43.19 -6.23,5.44 -12.22,11.10999 -18.06,16.95 0,0.49 2.66,1.65 3.22,1.84999 6.79,2.43001 13.22,4.59001 19.81,7.31 22.52,9.29001 43.44,22.06 65.68,32.07001 37.41,16.81999 86,25.81999 107.45,64.3 17.17,30.8 8.49,65.8 -20.83,84.99 -35.04,22.93 -81.46,20.29 -118.4,3.33 -22.84,-10.49 -41.64,-25.74 -60.2,-42.33 -0.33,-0.5 -0.23,-1.18 -0.04,-1.72001 0.73,-2.07999 15.31,-12.18999 18.12,-13.97999 0.9,-0.57 0.58,-1.75 2.93,-1.65001 2.07,0.09 3.17,2.72001 4.46,3.74 29.14,23.07001 58.75,44.88 98.44,42.57001 54.6,-3.17001 75.62,-56.42001 23.56,-84.59 -39.84,-21.56 -85.66,-6.4 -121.36,15.64999 -42.45,26.22001 -72.8,67.03001 -120.63,85.58001 -39.46,15.29999 -94.62,15.56999 -124.28,-18.80001 -26.830004,-31.08999 -17.160004,-75.9 14.7,-99.19999 2.75,-2.01 12.51,-8.28 15.35,-8.99 2.84,-0.71001 5.9,2.37 8.22,3.42999 5.87,2.67 13.03,5.96001 19.02,8.1 1.2,0.43001 9.92,2.54 9.91,3.08001 -2.02,2.08 -5.47,1.93999 -7.9,2.81999 -16.38,5.97001 -36.9,19.35 -42.23,36.86 -9.53,31.32001 19.74,53.5 48.17,55.47001 46.96,3.25 85.47,-27.08001 117.88,-56.66001 1.06,-0.96999 6.09,-4.32 6.18,-4.69999 0.15,-0.7 0.05,-1.72001 -0.58,-2.19 l -29.96,-10.72 c -20.06,-9.05001 -40.07,-18.45001 -60.48,-26.53 -35.78,-14.18001 -81.26,-24.89001 -103.37,-59.34001 -15.240004,-23.75 -13.730004,-57.09999 5.34,-78.21 30.73,-34.01999 82.92,-36.79999 123.87,-21.82999 z m 142.94,123.71 c -18.04,-7.32 -37.12,-21.03 -56.62,-23.9 -19.69,-2.89 -56.13,20.87 -74.26,30.19 -5.98,3.08 -12.19,5.85 -18.27,8.74 -2.95,1.69001 6.32,4.81001 7.09,5.23 14.16,7.69 28.67,16.02 43.24,22.86 28.53,13.39 43.25,15.78 72.58,2.25 17.03,-7.86 33.68,-17.95 50.35,-26.48 1.96,-1 3.88,-0.96 5.47,-3.01 l -13.74,-7.72 z"
         id="path11"
         style="mix-blend-mode:normal;fill:#ffb347;fill-opacity:1"
         inkscape:transform-center-x="1.0047275"
         inkscape:transform-center-y="1.0018972"
         inkscape:label="path6" />
      <path
         d="m 331.16004,260.22566 c 9.25,12.36 2.15,32.28001 -14.09,33.55001 -14.33,1.12 -25.28,-7.4 -24.56,-22.29 1,-20.57 26.39,-27.64 38.65,-11.26001 z"
         id="path12"
         style="mix-blend-mode:normal;fill:#ffb347;fill-opacity:1" />
    </g>
  </g>
  <g
     id="g21"
     inkscape:label="Colorway - Foreign Adventures - Eucalyptus &amp; Charcoal"
     style="display:none">
    <path
       style="display:inline;fill:#242424;fill-opacity:1"
       id="path18"
       width="574.21198"
       height="558.66956"
       x="10.533936"
       y="141.61023"
       sodipodi:type="rect"
       inkscape:path-effect="#path-effect22"
       d="m 297.63983,141.61023 h 1.8e-4 c 159.05667,0 287.1059,124.58331 287.1059,279.33478 0,154.75146 -128.04923,279.33478 -287.1059,279.33478 h -1.8e-4 c -159.05666,0 -287.105894,-124.58332 -287.105894,-279.33478 0,-154.75147 128.049234,-279.33478 287.105894,-279.33478 z"
       rx="287.1059"
       ry="279.33478" />
    <g
       id="g20"
       inkscape:transform-center-x="1.4066774"
       inkscape:transform-center-y="-0.1577287"
       transform="translate(-16.849067,148.89872)"
       style="display:inline;fill:#84a59d;fill-opacity:1">
      <path
         d="m 231.50612,132.50285 c 20.99,7.67 54.22,29.75 69.69,46.4 0.44,0.48 0.8,1.08 0.98,1.71 l -21.05,17.05 c -10.95,-9.26 -21.68,-18.8 -34,-26.28 -25.25,-15.32 -56.68,-25.39 -86.1,-16.78 -47.08,13.78 -51.24,61.65 -7.71,84 38.58,19.81001 85.14,4.68 119.54,-16.84 38.78,-24.26999 64.23,-61.38999 106.5,-82.19999 42.22,-20.78001 96.78,-21.73001 133.18,11.09999 38.57,34.78 21.72,91.63 -21.91,111.97 -3.99,1.86001 -5.3,2.61001 -9.47,1.28001 -8.57,-2.72001 -18.83,-7.75 -27.27,-11.15001 -1.94,-0.78 -11.52,-3.88 -11.98,-4.97 -0.11,-0.27 -0.26,-1.49 0.35,-1.38999 2.48,-0.83001 5.36,-0.22 7.71,-0.7 23.33,-4.79 51.8,-21 53.51,-47.61 1.67,-26.06 -29.06,-43.39 -51.7,-45.45 -41.25,-3.75 -74.71,17.41 -104.26,43.19 -6.23,5.44 -12.22,11.10999 -18.06,16.95 0,0.49 2.66,1.65 3.22,1.84999 6.79,2.43001 13.22,4.59001 19.81,7.31 22.52,9.29001 43.44,22.06 65.68,32.07001 37.41,16.81999 86,25.81999 107.45,64.3 17.17,30.8 8.49,65.8 -20.83,84.99 -35.04,22.93 -81.46,20.29 -118.4,3.33 -22.84,-10.49 -41.64,-25.74 -60.2,-42.33 -0.33,-0.5 -0.23,-1.18 -0.04,-1.72001 0.73,-2.07999 15.31,-12.18999 18.12,-13.97999 0.9,-0.57 0.58,-1.75 2.93,-1.65001 2.07,0.09 3.17,2.72001 4.46,3.74 29.14,23.07001 58.75,44.88 98.44,42.57001 54.6,-3.17001 75.62,-56.42001 23.56,-84.59 -39.84,-21.56 -85.66,-6.4 -121.36,15.64999 -42.45,26.22001 -72.8,67.03001 -120.63,85.58001 -39.46,15.29999 -94.62,15.56999 -124.28,-18.80001 -26.830004,-31.08999 -17.160004,-75.9 14.7,-99.19999 2.75,-2.01 12.51,-8.28 15.35,-8.99 2.84,-0.71001 5.9,2.37 8.22,3.42999 5.87,2.67 13.03,5.96001 19.02,8.1 1.2,0.43001 9.92,2.54 9.91,3.08001 -2.02,2.08 -5.47,1.93999 -7.9,2.81999 -16.38,5.97001 -36.9,19.35 -42.23,36.86 -9.53,31.32001 19.74,53.5 48.17,55.47001 46.96,3.25 85.47,-27.08001 117.88,-56.66001 1.06,-0.96999 6.09,-4.32 6.18,-4.69999 0.15,-0.7 0.05,-1.72001 -0.58,-2.19 l -29.96,-10.72 c -20.06,-9.05001 -40.07,-18.45001 -60.48,-26.53 -35.78,-14.18001 -81.26,-24.89001 -103.37,-59.34001 -15.240004,-23.75 -13.730004,-57.09999 5.34,-78.21 30.73,-34.01999 82.92,-36.79999 123.87,-21.82999 z m 142.94,123.71 c -18.04,-7.32 -37.12,-21.03 -56.62,-23.9 -19.69,-2.89 -56.13,20.87 -74.26,30.19 -5.98,3.08 -12.19,5.85 -18.27,8.74 -2.95,1.69001 6.32,4.81001 7.09,5.23 14.16,7.69 28.67,16.02 43.24,22.86 28.53,13.39 43.25,15.78 72.58,2.25 17.03,-7.86 33.68,-17.95 50.35,-26.48 1.96,-1 3.88,-0.96 5.47,-3.01 l -13.74,-7.72 z"
         id="path19"
         style="mix-blend-mode:normal;fill:#84a59d;fill-opacity:1"
         inkscape:transform-center-x="1.0047275"
         inkscape:transform-center-y="1.0018972"
         inkscape:label="path6" />
      <path
         d="m 331.16004,260.22566 c 9.25,12.36 2.15,32.28001 -14.09,33.55001 -14.33,1.12 -25.28,-7.4 -24.56,-22.29 1,-20.57 26.39,-27.64 38.65,-11.26001 z"
         id="path20"
         style="mix-blend-mode:normal;fill:#84a59d;fill-opacity:1" />
    </g>
  </g>
  <g
     id="g17"
     inkscape:label="Original"
     style="display:inline">
    <g
       id="g16"
       inkscape:transform-center-x="1.4066774"
       inkscape:transform-center-y="-0.1577287"
       transform="translate(-16.849067,148.89872)"
       style="display:inline;fill:#000000;fill-opacity:1"
       inkscape:label="g1">
      <path
         d="m 231.50612,132.50285 c 20.99,7.67 54.22,29.75 69.69,46.4 0.44,0.48 0.8,1.08 0.98,1.71 l -21.05,17.05 c -10.95,-9.26 -21.68,-18.8 -34,-26.28 -25.25,-15.32 -56.68,-25.39 -86.1,-16.78 -47.08,13.78 -51.24,61.65 -7.71,84 38.58,19.81001 85.14,4.68 119.54,-16.84 38.78,-24.26999 64.23,-61.38999 106.5,-82.19999 42.22,-20.78001 96.78,-21.73001 133.18,11.09999 38.57,34.78 21.72,91.63 -21.91,111.97 -3.99,1.86001 -5.3,2.61001 -9.47,1.28001 -8.57,-2.72001 -18.83,-7.75 -27.27,-11.15001 -1.94,-0.78 -11.52,-3.88 -11.98,-4.97 -0.11,-0.27 -0.26,-1.49 0.35,-1.38999 2.48,-0.83001 5.36,-0.22 7.71,-0.7 23.33,-4.79 51.8,-21 53.51,-47.61 1.67,-26.06 -29.06,-43.39 -51.7,-45.45 -41.25,-3.75 -74.71,17.41 -104.26,43.19 -6.23,5.44 -12.22,11.10999 -18.06,16.95 0,0.49 2.66,1.65 3.22,1.84999 6.79,2.43001 13.22,4.59001 19.81,7.31 22.52,9.29001 43.44,22.06 65.68,32.07001 37.41,16.81999 86,25.81999 107.45,64.3 17.17,30.8 8.49,65.8 -20.83,84.99 -35.04,22.93 -81.46,20.29 -118.4,3.33 -22.84,-10.49 -41.64,-25.74 -60.2,-42.33 -0.33,-0.5 -0.23,-1.18 -0.04,-1.72001 0.73,-2.07999 15.31,-12.18999 18.12,-13.97999 0.9,-0.57 0.58,-1.75 2.93,-1.65001 2.07,0.09 3.17,2.72001 4.46,3.74 29.14,23.07001 58.75,44.88 98.44,42.57001 54.6,-3.17001 75.62,-56.42001 23.56,-84.59 -39.84,-21.56 -85.66,-6.4 -121.36,15.64999 -42.45,26.22001 -72.8,67.03001 -120.63,85.58001 -39.46,15.29999 -94.62,15.56999 -124.28,-18.80001 -26.830004,-31.08999 -17.160004,-75.9 14.7,-99.19999 2.75,-2.01 12.51,-8.28 15.35,-8.99 2.84,-0.71001 5.9,2.37 8.22,3.42999 5.87,2.67 13.03,5.96001 19.02,8.1 1.2,0.43001 9.92,2.54 9.91,3.08001 -2.02,2.08 -5.47,1.93999 -7.9,2.81999 -16.38,5.97001 -36.9,19.35 -42.23,36.86 -9.53,31.32001 19.74,53.5 48.17,55.47001 46.96,3.25 85.47,-27.08001 117.88,-56.66001 1.06,-0.96999 6.09,-4.32 6.18,-4.69999 0.15,-0.7 0.05,-1.72001 -0.58,-2.19 l -29.96,-10.72 c -20.06,-9.05001 -40.07,-18.45001 -60.48,-26.53 -35.78,-14.18001 -81.26,-24.89001 -103.37,-59.34001 -15.240004,-23.75 -13.730004,-57.09999 5.34,-78.21 30.73,-34.01999 82.92,-36.79999 123.87,-21.82999 z m 142.94,123.71 c -18.04,-7.32 -37.12,-21.03 -56.62,-23.9 -19.69,-2.89 -56.13,20.87 -74.26,30.19 -5.98,3.08 -12.19,5.85 -18.27,8.74 -2.95,1.69001 6.32,4.81001 7.09,5.23 14.16,7.69 28.67,16.02 43.24,22.86 28.53,13.39 43.25,15.78 72.58,2.25 17.03,-7.86 33.68,-17.95 50.35,-26.48 1.96,-1 3.88,-0.96 5.47,-3.01 l -13.74,-7.72 z"
         id="path15"
         style="mix-blend-mode:normal;fill:#000000;fill-opacity:1"
         inkscape:transform-center-x="1.0047275"
         inkscape:transform-center-y="1.0018972"
         inkscape:label="path6" />
      <path
         d="m 331.16004,260.22566 c 9.25,12.36 2.15,32.28001 -14.09,33.55001 -14.33,1.12 -25.28,-7.4 -24.56,-22.29 1,-20.57 26.39,-27.64 38.65,-11.26001 z"
         id="path16"
         style="mix-blend-mode:normal;fill:#000000;fill-opacity:1" />
    </g>
  </g>
</svg>
